<!-- google-icon.svg -->
<svg xmlns="http://www.w3.org/2000/svg" width="20" height="20" viewBox="0 0 48 48">
  <path fill="#fbc02d" d="M43.611 20.083H42V20H24v8h11.317C33.431 32.904 29.108 36 24 36c-6.627 0-12-5.373-12-12s5.373-12 12-12c3.059 0 5.842 1.153 7.953 3.047l6.362-6.362C34.579 5.197 29.526 3 24 3 12.954 3 4 11.954 4 23s8.954 20 20 20c10.274 0 19.121-7.422 19.121-19 0-1.269-.138-2.517-.39-3.917z"/>
  <path fill="#e53935" d="M6.306 14.691l6.571 4.819C14.325 15.179 18.81 12 24 12c3.059 0 5.842 1.153 7.953 3.047l6.362-6.362C34.579 5.197 29.526 3 24 3 16.318 3 9.599 7.552 6.306 14.691z"/>
  <path fill="#4caf50" d="M24 43c5.017 0 9.59-1.887 13.065-4.957l-6.019-4.91C29.377 34.191 26.777 35 24 35c-5.057 0-9.354-3.28-10.89-7.789l-6.585 5.077C9.532 39.019 16.247 43 24 43z"/>
  <path fill="#1565c0" d="M43.611 20.083H42V20H24v8h11.317C33.833 32.5 29.625 35 24 35c-5.057 0-9.354-3.28-10.89-7.789l-6.585 5.077C9.532 39.019 16.247 43 24 43c10.274 0 19.121-7.422 19.121-19 0-1.269-.138-2.517-.39-3.917z"/>
</svg>
